<?xml version="1.0" standalone="no"?>
<!DOCTYPE svg PUBLIC "-//W3C//DTD SVG 20010904//EN"
 "http://www.w3.org/TR/2001/REC-SVG-20010904/DTD/svg10.dtd">
<svg version="1.0" xmlns="http://www.w3.org/2000/svg"
 width="120.000000pt" height="120.000000pt" viewBox="0 0 120.000000 120.000000"
 preserveAspectRatio="xMidYMid meet">
<metadata>
Created by potrace 1.11, written by Peter Selinger 2001-2013
</metadata>
<g transform="translate(0.000000,120.000000) scale(0.100000,-0.100000)"
fill="#000000" stroke="none">
<path d="M250 1181 c-49 -26 -72 -62 -78 -121 -4 -42 -9 -53 -31 -64 -56 -30
-75 -62 -79 -136 l-4 -70 56 0 56 0 0 -50 c0 -55 30 -144 61 -184 11 -14 19
-27 17 -27 -2 -1 -19 -3 -38 -3 -29 -2 -36 -7 -40 -27 -3 -14 -24 -42 -47 -63
-23 -21 -55 -63 -70 -94 -26 -53 -28 -68 -31 -199 l-4 -143 476 0 c520 0 518
0 579 58 84 79 91 215 15 298 -19 21 -19 21 16 42 52 31 76 76 76 145 0 50 -2
57 -20 57 -18 0 -20 7 -20 75 l0 75 -89 0 -88 0 -5 79 c-5 92 -29 140 -83 165
-32 15 -35 21 -35 59 0 51 -28 100 -72 127 -30 18 -51 20 -258 20 -200 0 -229
-2 -260 -19z m500 -88 c18 -24 20 -35 15 -89 l-7 -61 41 -7 c43 -7 85 -39 78
-59 -2 -7 -31 -13 -75 -15 l-72 -3 0 -34 c0 -28 4 -35 20 -35 16 0 20 -7 20
-33 0 -93 -63 -197 -143 -238 -89 -46 -212 -32 -289 31 -51 42 -88 121 -88
187 0 40 4 53 15 53 10 0 15 11 15 35 l0 35 -69 0 c-39 0 -72 4 -75 9 -12 19
35 61 75 67 l39 7 0 73 c0 106 -6 104 261 104 l218 0 21 -27z m146 -502 c-9
-10 -16 -30 -16 -45 l0 -28 39 33 c22 19 40 43 40 55 1 31 38 64 71 64 27 0
30 -3 30 -34 0 -36 -27 -66 -60 -66 -9 0 -34 -18 -55 -40 l-39 -40 33 0 c18 0
39 7 47 15 16 16 114 22 114 7 0 -4 -7 -17 -15 -29 -12 -18 -29 -22 -119 -28
-75 -5 -109 -11 -118 -22 -17 -21 16 -47 43 -33 21 12 99 13 99 2 0 -4 -7 -17
-15 -29 -15 -21 -14 -23 15 -38 67 -35 93 -143 49 -199 -38 -48 -67 -56 -203
-56 l-126 0 -30 31 c-24 26 -30 41 -30 75 l0 44 -165 0 -165 0 0 105 c0 58 3
105 7 105 4 0 30 -23 58 -50 l51 -50 34 35 c33 34 33 35 15 55 -18 20 -18 20
18 20 39 0 45 -8 25 -28 -9 -9 -4 -20 22 -47 l34 -35 53 52 53 52 0 -87 c0
-156 33 -85 45 98 7 100 21 135 52 135 19 0 18 -94 -2 -110 -8 -7 -15 -18 -15
-25 0 -25 28 -23 54 4 24 25 26 34 26 118 0 88 1 92 28 113 l27 22 3 -52 c2
-37 -2 -57 -12 -69z m-656 -316 c0 -134 -1 -145 -20 -155 -11 -6 -20 -17 -20
-25 0 -11 -13 -15 -50 -15 l-50 0 0 88 c0 75 4 96 26 140 23 46 85 112 106
112 5 0 8 -65 8 -145z"/>
<path d="M364 805 c-31 -48 11 -118 51 -85 8 7 15 29 15 49 0 61 -37 81 -66
36z"/>
<path d="M598 819 c-12 -7 -18 -22 -18 -47 0 -41 14 -62 42 -62 35 0 52 75 22
104 -18 19 -23 19 -46 5z"/>
</g>
</svg>
