<?xml version="1.0" standalone="no"?>
<!DOCTYPE svg PUBLIC "-//W3C//DTD SVG 20010904//EN"
 "http://www.w3.org/TR/2001/REC-SVG-20010904/DTD/svg10.dtd">
<svg version="1.0" xmlns="http://www.w3.org/2000/svg"
 width="120.000000pt" height="120.000000pt" viewBox="0 0 120.000000 120.000000"
 preserveAspectRatio="xMidYMid meet">
<metadata>
Created by potrace 1.14, written by Peter Selinger 2001-2017
</metadata>
<g transform="translate(0.000000,120.000000) scale(0.100000,-0.100000)"
fill="#000000" stroke="none">
<path d="M594 1179 c-37 -10 -91 -60 -104 -95 -20 -52 5 -118 61 -159 23 -16
47 -41 54 -55 15 -31 27 -94 19 -102 -10 -10 -63 26 -76 52 -7 14 -15 27 -18
30 -3 3 -16 21 -29 41 -34 51 -81 79 -141 86 -54 6 -170 -14 -170 -28 0 -23
120 -137 166 -158 47 -22 127 -30 181 -17 23 5 41 3 61 -10 33 -19 34 -8 -15
-106 -7 -14 -13 -33 -13 -42 0 -26 -18 -19 -68 27 -93 85 -154 108 -298 113
-55 1 -105 4 -110 6 -18 6 -11 -18 21 -67 40 -62 98 -119 144 -141 39 -19 116
-20 137 -3 8 6 14 9 14 5 0 -4 24 7 53 23 48 27 54 28 79 15 22 -11 27 -21 26
-48 l-1 -33 -61 -2 c-100 -4 -216 -28 -231 -48 -7 -10 -11 -33 -8 -53 2 -19 6
-57 8 -85 2 -38 9 -54 28 -70 14 -11 28 -35 31 -55 4 -19 8 -44 10 -55 9 -53
20 -75 44 -92 49 -32 96 -44 187 -48 98 -5 161 9 221 45 39 24 41 29 59 140 5
29 16 52 32 66 19 16 26 34 29 70 2 27 5 65 8 85 2 20 1 41 -3 46 -18 29 -110
49 -244 54 -31 1 -61 7 -65 13 -13 17 -9 61 6 58 6 -1 12 2 12 8 0 5 -7 10
-15 10 -19 0 -19 5 5 82 24 79 40 94 106 101 86 9 147 53 179 131 19 45 30
172 17 180 -13 8 -113 -48 -156 -87 -38 -36 -57 -73 -76 -157 -12 -50 -34 -89
-45 -78 -3 2 -7 21 -10 41 -4 20 -12 48 -19 62 -11 22 -10 31 11 76 19 40 25
67 24 121 0 39 -3 73 -5 76 -3 2 -1 13 5 23 11 22 -4 24 -57 8z"/>
<path d="M908 775 c-2 -1 -22 -5 -46 -9 -62 -8 -114 -43 -162 -108 -23 -32
-47 -58 -52 -58 -5 0 -6 -5 -3 -11 4 -6 9 -8 12 -5 3 2 25 -4 49 -14 31 -14
62 -18 108 -16 71 3 103 19 186 95 25 22 63 49 84 59 l40 19 -65 21 c-58 19
-143 34 -151 27z"/>
</g>
</svg>
